<svg fill="none" height="600" viewBox="0 0 1440 600" width="1440" xmlns="http://www.w3.org/2000/svg" xmlns:xlink="http://www.w3.org/1999/xlink"><mask id="a" height="600" maskUnits="userSpaceOnUse" width="1440" x="0" y="0"><path d="m0 0h1440v600h-1440z" fill="#7481FF"/></mask><g mask="url(#a)"><path d="m59.0466 621.97-7.2676 2.555h6.9215l1.0767-.382.1345.382h2.4418l-.3845-1.144 121.953-42.965c2.903 13.463 6.21 28.128 9.882 44.109h11.902c-15.555-68.004-24.053-110.378-25.187-137.953 19.899-5.95 34.954-6.389 38.549-6.389l9.517 33.106c.096.343.346.61.673.744.135.057.288.095.442.095.192 0 .385-.038.558-.133l27.609-14.971c.519-.286.73-.896.519-1.43l-12.19-30.417 15.881-7.952 17.323-8.314 16.997 14.016-69.812 159.598h2.519l30.589-69.93 41.549 16.4 2.672 23.38-39.03 6.007c-.538.076-.942.515-.98 1.068l-1.557 23.075h2.326l1.48-22.007 14.901-2.288 1.327 24.295h17.803l-2.115-26.908 7.287-1.125 27.782-3.604 6.191 31.637h2.365l-6.249-31.943 15.651-2.04 3.537 15.618-11.555 18.346h2.73l9.537-15.161 3.441 15.161h4.749l-4.364-19.28 43.894-17.792 11.016 29.577c.193.534.769.858 1.346.725l13.093-3.07 2.904 9.84h2.422l-3.384-11.538c-.173-.591-.788-.934-1.384-.801l-13.17 3.09-10.69-28.701 91.691-37.167 63.255-9.574 9.017 19.738c.077.153.173.286.288.4l24.668 21.321 31.858 36.1 6.306 7.132h3.076l-6.979-7.895 14.285-16.4 13.651 20.824c.231.343.596.515.981.515.211 0 .442-.057.634-.191.539-.343.692-1.049.346-1.583l-14.477-22.083-11.305-18.25 23.148-21.282 11.824 13.292-.307 23.856c0 .63.5 1.164 1.153 1.164h.02c.634 0 1.153-.496 1.153-1.144l.308-24.315c0-.286-.096-.553-.289-.782l-12.151-13.673 11.459-10.546 30.051 16.153c.173.095.365.133.558.133.327 0 .673-.152.884-.419l6.922-8.239 3.518 8.639c.135.324.423.572.769.687l16.4 4.519 5.48 16.496c.058.171.154.324.269.438l39.03 40.048h6.094l49.816-47.084h.019s0-.019.019-.019l27.821-26.298 53.2 28.948 9.209 22.293-16.939 22.217h2.904l28.974-37.911.019.019c.212.171.481.247.731.247.346 0 .673-.152.903-.419.404-.496.327-1.221-.173-1.621l-.077-.057 15.458-20.234 18.496 14.398c-5.056 6.332-10.132 12.663-15.208 19.013l-.019.019c-.019.019-.038.038-.038.057-3.115 3.91-6.23 7.8-9.345 11.71-4.422 5.53-8.402 10.526-11.824 14.798h20.899c3.576-9.478 6.749-16.095 9.402-19.432.385-.477.769-.973 1.173-1.469l19.938 13.94c.211.134.442.21.672.21.347 0 .693-.152.923-.457l7.422-9.764c.384-.515.288-1.221-.231-1.602-.519-.382-1.23-.286-1.615.229l-6.748 8.886-18.919-13.215c11.978-15.009 27.186-33.983 43.762-54.579l42.55 21.206-31.15 56.028h2.65l6.52-11.709 21.61 11.709h4.83l-25.33-13.731 25.88-46.569 16.29-28.758c.06-.114.11-.247.13-.362l4.96-28.815c0-.019 0-.019 0-.038l100.48 7.723-15.4 14.17c-.4.381-.5.991-.19 1.449l13.96 21.911-45.15 73.02h2.73l44.01-71.246 77.72 70.712-.33.534h6.73l-2.91-1.163 36.71-39.228 51.75 23.628c-2.03 5.473-4.11 11.08-6.21 16.763h12.39c2.32-6.331 4.63-12.548 6.86-18.555 4 6.522 7.86 12.796 11.46 18.555h13.65c-3.29-5.206-6.96-11.099-10.88-17.449l31.78 12.453 11.9 4.996h5.94l-15.9-6.675 22.84-55.303 9.67 3.89v-2.479l-8.78-3.547 8.78-21.282v-6.064l-1.79 4.309-20.49-9.535 6-12.529 16.28 6.084v-2.46l-15.3-5.721 5.02-10.489c.19-.419.11-.877-.16-1.22l10.44 4.271v-2.479l-32.03-13.082c1.6-3.509 3.25-7.132 4.9-10.794l27.13 11.271v-2.498l-26.18-10.87c3.48-7.705 6.99-15.581 10.38-23.171l15.82 6.37v-12.415l-11.11-4.481c4.19-9.44 7.98-18.041 10.92-24.734l.19.095v-32.324c-11.67 21.511-27.82 42.298-65.58 53.435-1.88.286-3.79.61-5.71.991-16.94 3.357-60.49 2.823-97.21 1.107l12.21-40.143 30.74-41.535 38.9 27.671c.21.153.44.21.67.21.37 0 .71-.172.94-.477.37-.515.25-1.24-.27-1.602l-38.89-27.633 20.84-28.166 103.36 42.412v-2.479l-103.11-42.317-28.8-27.079 48.87-59.556 83.02 41v-12.853l-76.79-37.93 76.81-150.1585v-20.7483l-21.76 4.7104 6.59-23.2656c3.83 1.907 9.13 4.3099 15.19 6.5601v-12.3383c-7.32-2.975-12.96-5.988-15.01-7.1323-8.21-9.9546-78.81-95.5412-91.29-107.1359-12.27-11.423-57.22-31.3896-68.01-36.0806-30.33-55.246-75.32-138.163-77.92-145.677-.9-4.405-4.56-37.625-7.9-69.415h-11.65c.67 6.465 1.42 13.502 2.19 20.596l-7.37-20.615h-12.3l3.9 10.927-53.97-4.1 1.02-6.827h-2.34l-1 6.656-47.7-3.624-.33-3.032h-4.67l.36 3.261-24.05 3.909-1.81-7.17h-2.38l1.92 7.533-36.816 5.969-1.461-13.502h-2.326l1.48 13.883-47.758 7.743-3.576-21.626h-2.346l3.634 22.007-46.817 7.59c-.211-10.26-.384-19.947-.519-28.376l7.268-1.221h-33.281l-33.416 1.316.077-1.316h-2.326l-1.596 30.131h-15.189c-.25 0-.48.076-.692.229-.173.133-13.766 10.031-24.36 17.582l-2.499-15.961 17.573-7.59c.365-.153.634-.515.692-.916l2.788-21.415c.077-.611-.327-1.164-.942-1.278l-4.269-.782h-12.631l15.419 2.861-2.557 19.68-17.784 7.685c-.481.21-.769.706-.692 1.24l2.807 17.983c-2.634 1.869-4.999 3.528-6.787 4.767-8.614 5.912-43.029 17.087-46.009 18.041l-24.072-1.373-43.24-47.847-5.729-17.964 7.69-5.073h-4.191l-4.23 2.784-.903-2.784h-2.442l7.652 23.952c.058.153.135.305.25.42l42.567 47.141-90.345 33.01c-2.115-.476-15.362-3.699-17.938-11.651-.981-2.994-7.921-18.46-16.996-38.541.019 0 .058 0 .077-.019l44.201-21.473 11.671 27.251c.134.305.384.534.692.629.115.038.25.058.384.058.193 0 .385-.058.558-.153l26.744-14.76c.269-.153.481-.42.557-.725.077-.305.039-.629-.134-.896l-22.149-35.337c-.269-.439-.807-.629-1.307-.496l-22.284 6.236-6.268-14.646h-2.518l13.151 30.722-44.298 21.53c-.385-.858-.769-1.697-1.154-2.555-6.787-15.008-14.804-32.744-22.321-49.697h-2.538c7.498 16.896 15.573 34.803 22.744 50.631 10.056 22.255 17.996 39.838 19.015 42.946 2.673 8.257 14.305 11.862 18.496 12.911-2.826 5.225-13.458 24.6-18.207 29.31-3.826 3.795-19.188 13.006-28.301 18.327l-36.05-35.757-54.757-118.368h-12.766l23.264 50.307-85.231-7.571c8.344-12.529 18.4-27.613 28.494-42.736h-13.92c-8.691 13.006-17.708 26.527-25.379 38.083l7.171-38.083h-2.364l-5.076 26.984-45.625-11.671 3.154-15.313h-2.365l-8.614 41.821-50.834-13.273 2.115-28.548h-2.327l-2.172 29.33v.019.019l-3.346 76.3c-.019.553.346 1.029.865 1.163l21.457 5.435-45.47 29.959-35.069-102.159c4.345-5.702 14.285-20.252 20.245-40.085h-12.228c-5.633 16.686-14.093 28.91-17.477 33.373l-7.671-13.368c-.173-.306-.461-.496-.808-.573-.346-.057-.692.039-.961.248l-15.862 13.369-42.471-33.03h-3.749l44.452 34.593-43.529 36.672-1.654-32.514c-.019-.496-.384-.935-.865-1.049l-13.247-3.319c-.23-.057-.461-.038-.692.039l-26.6285 9.859-42.1827-3.757 8.748-32.629h16.3809c.5191 0 .9806-.362 1.1152-.858l1.8649-7.037h-2.4033l-1.4804 5.607h-16.2656l-13.1124-2.727.5576-2.88h-2.3649l-.4614 2.403-11.5551-2.403h-11.3051l22.4372 4.653-6.7869 35.032-22.8217 10.927-14.0353157-2.727v2.346l12.9009157 2.517-2.4225 19.375-10.4784157-2.708v2.384l2.9416357.763-2.9416358 30.97v24.543l1.9995458-21.053 40.49077 7.914-3.5376 39.36-38.9527158-1.296v2.307l39.9717158 1.335h.0384l42.2789-.648 6.9984 44.662c-31.6851-2.689-65.8697-12.186-89.2874159-19.833v12.148c5.4795259 1.754 11.4397159 3.566 17.8229159 5.377 34.1076 9.688 63.524 14.57 87.6916 14.57 3.634 0 7.152-.114 10.536-.324 8.863-.572 17.919-2.136 26.936-4.348l37.242 8.905-4.057 24.6772c-15.458-3.2419-33.762-8.0857-34.031-8.1429-.077-.0191-.153-.0382-.211-.0382l-32.973-2.3075c-.174 0-.347.0191-.5.0763l-83.8852 32.3811-24.5713159-26.4121v3.3945l23.0524159 24.7911-.9805 24.3716c0 .1716.0192.3242.0769.4767l14.5159 35.56583-1.961 9.03922-34.703716-74.50695v27.4229l35.876516 77.0623c-4.4413 2.6507-8.2866 4.9582-11.4398 6.8462l-24.4367161-16.8389v13.9974l17.0154161 11.7281-8.70961 19.9474c-2.07645-4.8248-4.82583-9.783-8.3058061-14.7221l-.0000001 25.7446c.6536982 2.1358 1.1920362 4.2145 1.5957962 6.2741.03845.3432.09613.6865.21149 1.0297 2.57634 13.9404-.11536 25.3634-1.8072862 30.6454l-.0000001 19.032 8.5557463-9.84c.38453-.438.69216-.915.92287-1.449.48066-1.106 7.5944-17.716 3.9414-39.4754l15.4004-35.2606c3.9029-2.3456 7.902-4.7294 11.9588-7.1704l34.9921 75.1744-27.0708 10.031c-.4038.152-.6729.496-.7499.915l-2.807 18.594-13.9392 31.294-23.16778 11.747c-.53834.267-.76905.915-.53834 1.468l57.62152 136.104 9.8055 23.132c-5.0758 2.288-9.9977 4.539-14.7851 6.713l-60.1402164-139.346v5.836l58.0445164 134.501c-2.9032 1.316-5.7295 2.613-8.5173 3.871l-49.5272164-115.908v5.893l47.4315164 110.969c-6.3447 2.899-12.3818 5.645-18.0536 8.238l-17.4191-44.7c-.2307-.591-.9036-.877-1.4996-.668-.59607.229-.90369.897-.67297 1.488l17.47677 44.834c-10.4591 4.767-19.61091 8.963-27.2630166 12.491v12.681c8.3442566-3.833 18.9572166-8.715 31.4352166-14.417l14.9966 38.484c-15.7272 6.808-30.9161 13.387-44.70144 19.337l-1.7303767-5.092v8.334c.1153587-.057.2114907-.096.3268487-.134l32.569568 96.304-32.8964168 13.559v2.498l33.6270168-13.864zm225.6604 2.517-1.346-24.62 12.401-1.907 2.019 25.84zm330.079-936.686 21.168-5.931 21.034 33.621-24.552 13.558zm-431.364 890.345-122.1836 43.061-25.4366-75.213 37.1454-15.313c.5768-.248.8652-.896.6345-1.488l-7.7867-19.89c-.0192-.057-.0577-.095-.0961-.152l99.2851-35.242 4.095-1.449c-1.557 23.132 3.692 56.18 14.343 105.686zm724.317-790.094c.038-.419-.154-.82-.5-1.048-.346-.229-.788-.267-1.173-.077l-17.4 8.544c-.75-13.483-1.403-32.439-1.942-52.424l54.315 1.354.48 2.918c-.115 1.239-.884 9.649-1.019 21.682 0 .077-.019.134 0 .21-.057 6.179.058 13.311.52 20.92 0 .019-.02.057-.02.076 0 .058.02.096.039.153.673 11.003 2.096 22.96 4.768 34.46 2.884 12.357 10.267 38.674 18.784 68.004l-66.542 11.6514c-.135-1.8688-.27-3.7568-.404-5.6444zm-11.113 96.457c-2.307-31.256-4.826-62.073-6.441-71.303-.481-2.784-.942-8.143-1.365-15.275l16.438-8.067zm162.254-111.789 3.54 32.19-25.11-7.704v-26.889zm-21.57-4.748v-32.668l17.84 3.567 3.46 31.503zm-28.57 100.804-6.06-17.525 64.43-3.814 1.02 9.287zm59.64-9.783 1.11 10.05-53.18 21.607-6.81-19.7zm-66.49-10.012-2.884-8.333c-.211-.61-.865-.916-1.48-.706s-.923.858-.711 1.469l17.705 51.184c.1.305.33.534.62.667.15.076.3.096.48.096.15 0 .31-.039.44-.077l53.7-21.816.02.267c-6.25 22.617-14.92 47.046-20.94 57.0388l-66.291 16.9724c-13.766-46.3972-29.897-101.7392-34.493-121.4572-2.557-10.966-3.941-22.37-4.633-32.934h31.839c.634 0 1.153-.515 1.153-1.145v-9.268l21.419 6.579-10.613 31.752c-.193.61.134 1.259.73 1.449.116.039.25.058.366.058.48 0 .942-.305 1.095-.782l10.618-31.79 11.57 3.547v30.474c0 .629.52 1.144 1.15 1.144h51.66l2.41 21.797zm115.99 113.3722-6.09-14.0165c-.25-.5721-.91-.8391-1.48-.6102l-11.15 4.3098c-.43.1525-.7.534-.73.9726l-1.62 20.1952-32.15 8.6579c-.59.1525-.96.7437-.82 1.3349l4.32 21.01523c.12.55304.6.91537 1.14.91537.08 0 .15 0 .23-.01907l53.81-10.86997c.31 8.92484.56 16.22864.7 20.19524-26.31-.4577-57.26-1.4684-62.36-4.2145-6.9-3.73772-45.12-35.0699-69.249-55.1698l128.299-32.8388c.31 8.2765.86 23.5516 1.46 39.5133zm4.37 1.6973c.34 9.6304.71 19.3561 1 27.86143l-53.07 10.71737-3.86-18.8222 31.88-8.5625c.48-.1335.8-.5339.84-1.0107l1.62-20.2906 9.42-3.6424 6 13.8068c.21.4767.73.7628 1.23.6865zm91.55 422.9945v.229c.29 13.063-.55 24.543-.96 28.223-2.52-.724-8.63-2.498-16.8-4.996.02-.095.04-.172.02-.267l-3.91-32.057c-.07-.629-.65-1.087-1.28-1.011-.64.077-1.1.649-1.02 1.278l3.8 31.313c-15.01-4.634-35.89-11.423-54.21-18.593 8.63-9.421 14.95-15.676 18.01-17.487 8.86-5.283 29.57-12.93 51.78-20.367 3.13 9.573 4.3 22.235 4.57 33.735zm-2.38-34.46c21.99-7.323 45.12-14.36 59.52-18.651l-54.93 50.67c-.38-11.061-1.63-22.903-4.59-32.019zm-319.793 54.941c-.173-.572-.788-.915-1.365-.782l-18.4 4.329c-.596.134-.98.706-.884 1.297l2.461 15.065-15.689 4.92-9.517-29.749 56.949-14.036 4.114 26.165-13.593 5.606zm1.903 13.635-17.842 5.588-2.23-13.674 16.304-3.833zm-22.725 51.985-5.711-17.849 50.201-13.368 5.018 18.517zm50.104-10.488 6.633 24.467-51.719 11.308-4.461-23.055zm-52.008 12.09 4.692 24.334-41.702 16.114-29.071-33.373 48.355-62.397 4.71 14.722v.019.019l6.595 20.596v.019c0 .019.019.019.019.019zm-38.991 41.668-31.723 26.641-23.399-25.096 26.59-34.307zm20.419-99.66-77.137 99.527-45.759-49.067 98.67-94.188 15.035 16.133-31.742 36.463c-.423.476-.366 1.201.115 1.621.481.419 1.211.362 1.634-.115l31.07-35.699zm-126.068 50.307-9.056 8.639-24.417-28.205 36.088-35.451 25.244 28.395-26.321 25.135c-.423-.191-.923-.134-1.288.19-.346.343-.442.858-.25 1.297zm-182.535-12.224c-.577-.267-1.269-.038-1.558.534l-10.344 20.939-12.093 1.507-9.786-15.314 13.997-16.991h21.399c.634 0 1.153-.515 1.153-1.144 0-.63-.519-1.145-1.153-1.145h-20.784v-16.419l18.496 2.632c.057 0 .115.019.173.019.307 0 .596-.115.826-.344.25-.248.385-.61.327-.972l-3.537-25.764c-.058-.419-.327-.763-.731-.915l-15.343-5.95 10.729-44.929 9.555 2.498c.577.152 1.173-.153 1.384-.706l13.478-35.985 2.25 2.632c.019.019.057.038.077.057.019.019.019.057.038.076l99.554 83.451-25.917 24.352-61.505-52.652c-.481-.42-1.211-.362-1.634.114l-10.613 11.938c-.423.477-.385 1.202.096 1.621.48.42 1.211.382 1.634-.095l9.863-11.08 26.648 22.827-12.709 12.11c-.461.438-.48 1.163-.038 1.621l29.705 31.046-14.42 13.539-28.513 26.794-12.747-14.722c-.423-.477-1.154-.534-1.634-.134-.481.42-.539 1.145-.135 1.621l12.824 14.818-15.381 14.436-23.398-23.514 10.266-20.767c.327-.686.077-1.373-.499-1.64zm-233.101-51.623 7.133 31.447-9.114 3.432-11.074-31.179zm-14.901 1.831-43.009 11.842-10.017-34.383c-.116-.42-.481-.744-.904-.82l-14.035-2.46c-.212-2.098-.519-4.119-.904-6.026-.134-.668-.346-1.526-.634-2.517l71.868-22.675 12.016 52.958zm6.345-60.49c-.135-.63-.539-1.164-1.115-1.488-.193-.114-.404-.152-.596-.191l-4.557-15.141 59.044-19.738 18.669 55.818-13.381 5.321c-.539.21-.846.801-.693 1.354l15.208 56.791-52.449 5.95zm82.577-37.378 16.746-6.522 21.572 43.442-21.033 8.372zm15.131 46.15-24.129 9.592-15.458-46.245 22.303-8.677zm-40.317-38.827-2.788-8.353-4.153-12.395 38.876-13.235 8.978 18.079zm2.461 56.371 62.082-24.696 25.34 51.032 2 14.303-34.358 5.988c-.077.019-.173.038-.25.076l-16.131 6.732-23.648 2.689zm64.235-25.554 54.911-21.854.096 1.507-17.515 84.404-10.017 1.754-2.019-14.417c-.019-.114-.058-.248-.116-.343zm38.472 66.231 12.036 1.964 4.806 7.723-16.323 8.582h-.019l-29.147 16.095-16.9-26.431zm-28.32 36.824 29.031-16.019 15.305 23.056-39.703 19.299-13.016-18.021zm31.069-17.125 15.324-8.047 20.091 32.209-19.822-.648zm17.381-9.134 8.748-4.596c.346-.191.577-.534.615-.916l2.058-23.627 16.361-6.999c.596-.248.865-.935.616-1.507-.25-.591-.943-.858-1.519-.61l-16.996 7.266c-.385.171-.654.534-.693.953l-2.076 23.685-8.325 4.367-5.172-8.295c-.173-.286-.461-.477-.788-.534l-11.555-1.888 17.457-84.137c.019-.096.019-.191.019-.305l-.153-2.708c.173-.287.211-.649.077-.992-.039-.095-.097-.153-.154-.229l-1.173-19.776c-.019-.171-.058-.343-.135-.495l-14.381-25.917 62.813-8.085 6.806 22.941c.038.152.115.305.231.419l20.802 24.162-13.554 36.214-9.69-2.536c-.308-.076-.616-.038-.885.134-.269.152-.461.419-.538.724l-11.228 47.046c-.019.096-.039.172-.039.267v.038 47.733l-13.574 16.495zm209.068-276.097c.212.362.596.572 1 .572.192 0 .384-.058.577-.153l.48-.286c1.769 2.365 3.538 4.729 5.211 6.999-.25 0-.5.057-.712.229l-27.59 21.186-14.15-20.214c10.632-12.739 19.668-23.837 22.591-27.423 4.018 5.206 8.671 11.29 13.228 17.373l-.25.134c-.5.324-.693 1.029-.385 1.583zm7.998 9.191c.193-.152.308-.362.385-.572 7.152 9.707 12.881 17.85 13.689 19.967-2 2.097-14.266 12.071-27.302 22.521l-14.458-20.652zm-15.035 43.366c-5.825 4.653-11.709 9.344-16.842 13.387-.5.4-.577 1.125-.192 1.621.23.286.557.439.903.439.25 0 .5-.077.731-.248 10.671-8.429 45.586-36.138 46.739-38.274.346-.629 1.115-2.155-20.187-30.493l27.109-15.428 2.768 7.495c.212.591.885.896 1.481.686.596-.229.903-.877.692-1.468l-3.249-8.772c-.116-.325-.366-.573-.692-.687-.327-.114-.673-.076-.981.076l-15.439 8.773-3.999-7.4 20.649-13.463c.539-.343.692-1.068.327-1.602-.346-.534-1.077-.687-1.615-.324l-21.534 14.035c-.499.325-.672.973-.384 1.507l4.537 8.391-11.112 6.312c-3.942-5.225-8.595-11.309-14.074-18.403l3.307-43.9182 51.911-39.0556 29.57 58.4308 13.747 60.357-11.44 2.021c-.192.039-.384.115-.538.248l-99.285 82.746-82.885 31.98-6.922-27.747c-.115-.458-.499-.801-.961-.858l-44.797-6.255 3.595-44.529c17.611 3.776 42.798 8.429 60.121 8.429 8.133 0 14.516-1.03 17.592-3.642 7.325-6.255 25.917-27.938 41.644-46.741zm-24.398-114.5926-28.705-22.7315c16.496-11.0226 43.548-29.1392 65.697-44.1664l21.418 22.9413zm380.429 237.9956.41 28.986c-.04-.038-.08-.057-.12-.095-57.6-48.744-92.361-77.94-107.762-90.831l19.727-25.802 53.965 27.785c.18.095.35.134.54.134.42 0 .83-.229 1.04-.63.29-.572.08-1.258-.5-1.544l-82.02-42.222-11.459-52.233 21.399-23.589 82.37 26.469-10.81 34.86c-.19.61.15 1.259.77 1.43.12.038.23.058.35.058.5 0 .96-.325 1.11-.82l10.9-35.128h26.75l-8.14 45.864zm-378.487 79.636-14.939-12.529 68.504-61.539c.25-.21.384-.534.384-.858v-28.91l44.894-27.061c.134-.076.25-.191.346-.324l14.862-20.71 21.322-4.825 21.553 6.141 2.249 9.306v.019l10.882 44.872-87.71 86.14v.019l-56.199 55.189-26.821 22.54-7.979-25.096c-.058-.21-.192-.381-.346-.534l-17.612-15.065 26.687-25.077c.23-.229.365-.534.365-.859-.038-.324-.192-.629-.442-.839zm138.238-292.116 8.805 24.048-32.8 5.721-5.249-23.018zm-29.763 4.52-3.057-13.445 26.552-8.1806 5.46 14.9126zm39.357 21.721 13.054 35.661-36.53 7.323c-.5.095-.846.515-.903.991l-8.71-38.197zm10.286 93.348-27.936-24.734 39.472-9.02 9.267 25.306zm21.63-6.293 11.343 27.728-29.955 8.066-2.095-8.638v-18.765zm-51.143-20.443-4.979-21.874c.211.324.576.515.961.515.077 0 .154 0 .231-.019l36.876-7.399 7.171 19.566zm-3.345-4.177-24.437 11.862-4.384-5.282c-.403-.496-1.134-.554-1.634-.153-.5.4-.557 1.125-.154 1.621l4.98 5.969c.231.267.558.419.884.419.173 0 .347-.038.52-.114l24.763-12.033.712 3.127-9.287 18.46-53.449 28.51-11.575-19.699 7.826-4.348c.269-.153.48-.42.557-.725s.019-.629-.134-.896l-8.845-14.055c-.115-.172-.269-.286-.423-.382l54.815-45.692 11.228-1.983zm-67.446 26.927-7.787 4.329c-.269.153-.462.401-.558.706-.077.305-.038.61.116.877l12.132 20.634-23.918 12.758c.173-.343.192-.744-.019-1.106l-16.285-27.137c-.135-.229-.365-.381-.596-.477l28.628-23.857c.019.077.038.172.096.248zm-22.034 39.361c.192.324.519.496.884.534l-122.029 65.067-14.67-12.3 5.152-31.008 101.324-39.094c.115-.038.23-.114.326-.19l12.594-10.489c.019.133.057.248.134.381zm82.866-40.562c.211-.114.384-.286.481-.496l8.959-17.792 28.628 25.344v17.621l-21.014-5.988c-.192-.058-.385-.058-.577-.019l-22.034 4.996c-.269.057-.519.229-.692.458l-14.977 20.881-45.24 27.271c-.346.209-.557.572-.557.991v29.044l-68.35 61.406-66.735-55.933zm-18.188 152.885 11.613 13.444-15.747 14.322-11.593-12.319zm-17.381 17.068 12.324 13.101c.231.248.539.362.846.362.289 0 .558-.095.788-.305l16.535-15.027 12.209 14.112-34.319 32.762-25.264-28.414zm19.034-18.689 33.243-32.648 18.726 20.081 8.133 8.715-34.742 33.163zm34.877-34.269 33.877-33.277 11.247 28.471-27.128 24.143zm24.687-80.056 30.281-8.162 14.785 36.138-34.626 15.141zm20.226-38.865 21.399-7.514 24.571 65.125-18.996 8.314zm23.571-8.277 11.671-4.1 24.937 63.771-12.094 5.301zm13.863-4.882 13.324-4.672 19.803 54.388c.346.954.942 1.793 1.73 2.441.077.057 1.904 1.583 5.576 4.653l-15.535 6.789zm42.375 58.469c14.323 11.996 49.527 41.554 109.547 92.319 2.54 2.136 5.06 4.214 7.58 6.274l-.98 35.28-125.588-113.162-7.094-13.483zm95.997-100.785-84-27.003c-.423-.134-.904-.02-1.211.324l-22.303 24.581c-.25.267-.346.649-.269 1.011l11.709 53.339c.077.324.288.61.596.782l26.455 13.616-19.418 25.382c-3.077-2.574-5.211-4.367-6.422-5.377l-41.183-113.124c-.096-.248-.211-.496-.327-.744l-12.324-23.037 47.662-32.8768h40.703c.634 0 1.153-.5149 1.153-1.1442v-53.8731l41.299-9.4588 15.52 42.6599c.05.1525.13.267.23.3814l23.13 24.9056 3.05 49.887c.02.344.19.649.46.859l9.37 6.922 3.42 21.988zm-146.832-22.16 20.976 57.63-13.362 4.692-49.181-125.7679 8.844-2.7271c4.979 12.6054 10.67 24.944 17.092 36.92zm5.441 63.103-11.651 4.1-47.835-126.7777 10.267-3.1656zm-13.824 4.863-21.418 7.533-46.874-128.1131 20.419-6.2931zm-69.119-122.735-27.782-71.5511c7.306-4.5196 13.997-7.6471 20.053-9.34437l28.148 74.62137zm-2.211.6865-26.513 8.162-29.397-58.0685 25.706-19.3371c.884-.6103 1.768-1.1633 2.634-1.7354zm-217.604 160.8565 6.806 27.27-16.708 6.446c-.384.152-.653.477-.73.877l-4.941 29.883-22.995-26.717-6.96-23.437 1.653-20.425zm-53.334 146.745 14.074 5.454 3.23 23.589-17.304-2.46zm109.686 30.626-15.15 14.245-28.916-30.207 12.035-11.461zm-59.947 59.48 10.882 12.586c.192.229.48.382.788.401l8.786.705h.097c.596 0 1.095-.458 1.153-1.049.058-.629-.423-1.182-1.057-1.239l-8.306-.668-10.652-12.3 27.763-26.088 14.459 15.027c.23.229.538.363.846.363.288 0 .576-.115.807-.324.462-.439.481-1.164.039-1.621l-14.459-15.028 30.57-28.719 17.535 15.008 8.171 25.706-74.483 62.589-28.224-30.97zm54.506 13.425 22.707 24.372-11.786 8.658-5.672-6.751c-.211-.267-.538-.42-.884-.42-.385.019-.673.153-.885.401l-17.438 20.195-15.535-21.664zm1.769-1.487 31.897-26.813 11.497 36.195-20.572 15.104zm33.82-28.415 26.686-22.426 24.456 28.243-6.614 6.312-32.993 24.219zm164.597-100.919-8.075-8.658 26.455-23.532 12.478 31.58-15.169 17.43zm19.957-34.498c0-.019-.019-.038-.019-.057l-11.805-29.826 34.761-15.198 23.072 68.938-33.07 8.887zm25.052-46.016 19.111-8.353 34.338 69.492-30.243 8.124zm21.226-9.287 12.132-5.302 7.248 13.788c.058.115.154.229.25.324l98.647 88.886-15.416 19.757-42.644-33.468c-.5-.401-1.231-.305-1.634.191-.404.495-.308 1.22.192 1.62l85.672 67.223-28.8 5.396-73.714-68.938-6.98-18.708c0-.019-.019-.038-.038-.057 0-.019 0-.038-.019-.057zm146.007 155.059-1.62 58.221c-3.02 3.7-6.07 7.457-9.13 11.252l-13.86-10.718-4.83-53.244zm-41.281-36.195 15.321-19.623 26.84 24.181-.77 27.918zm44.411 6.598 38.76 34.918c-12.71 15.218-26.55 32.057-41.12 49.944zm.08-3.032.98-35.508c22.15 17.735 43.66 31.675 63.74 42.659-7.54 8.754-15.77 18.479-24.58 29.025zm61.14-29.883c-14.13-10.736-33.46-27.632-46.51-39.284.1-.038.21-.076.29-.153l7.88-6.274 27.44 6.389 16.17 27.918zm7.27-10.183 33.83 6.255c-4.26 4.005-9.86 9.821-16.55 17.182-9.4-4.043-17.44-8.105-22.65-11.843zm-7.52 12.891c5.23 3.929 13.48 8.162 23.15 12.358-3.54 3.928-7.39 8.238-11.48 12.929-22.34-11.976-46.62-27.728-71.45-48.419l-.4-28.3c8.21 7.457 40.01 36.271 60.18 51.432zm14.32 39.876c36.17 18.422 66.83 27.137 86.62 31.218-1.04 3.737-2.12 7.628-3.21 11.537l-96.75-27.08c4.63-5.492 9.09-10.736 13.34-15.675zm-14.99 17.602 27.84 7.799-3.43 11.766-32.93-9.439c2.9-3.433 5.75-6.827 8.52-10.126zm30.09 8.429 67.67 18.936c-1.15 4.119-2.29 8.238-3.4 12.224l-67.72-19.394zm70.21 18.459c.02 0 .02 0 0 0 1.21-4.348 2.4-8.677 3.56-12.815.59.115 1.17.229 1.73.344 16.78 3.909 28.24 7.017 36.12 10.088l-53.23 44.872c2.09-7.476 6.99-25.116 11.82-42.489zm4.4-24.505c-3.53-.801-7.26-1.64-11.19-2.517-17.76-4.481-42.35-12.472-70.63-26.565 4.42-5.053 8.51-9.668 12.2-13.749 30.31 11.957 67.62 22.731 74.64 24.734-.69 2.517-2.58 9.306-5.02 18.097zm-55.89-72.047c-1.19.725-2.77 1.946-4.65 3.605l-35.92-6.637-16.45-28.395c-.16-.267-.43-.477-.73-.553l-28.48-6.637c-.34-.076-.71 0-1 .229l-8.32 6.637c-.2.152-.31.362-.37.591-6.5-5.817-11.17-10.088-12.44-11.252l-1.5-106.563 8.19-46.055h8.85l99.49 1.297c5.69 25.001 12.19 53.435 19.54 85.568 4.5 19.699 7.48 32.705 7.86 34.421 1.46 6.618 13.07 39.78 17.79 53.072-22.06 7.457-42.55 15.142-51.86 20.672zm-22.45-344.7111c5.38.0763 10.88.1526 16.45.2289 11.27.1335 20.19.2479 23.52.4768.21.019.42.019.67.019 13.34 0 89.88-20.481253 111.76-26.41207l23.82 102.90237c.02.1144.08.2098.1.3051.02.0763.02.1335.04.2098l34.88 104.4092-161.18 39.608c-16.32-71.436-46.87-205.1561-50.06-221.7471zm103.74-17.62072c-28.78 7.34198-57.64 14.16912-63.45 13.73042-3.46-.2478-12.44-.3623-23.78-.4957-4.96-.0573-10.73-.1336-16.86-.2289-.44-14.5314539-2.67-74.8502-3.37-93.4817l70.58-18.0594 19.56 7.0559 17.34 52.7098v38.76958zm-75.12 166.29182-97.95-1.278-3.56-22.808c-.04-.305-.21-.572-.46-.744l-9.31-6.884-3.06-49.7539c-.02-.267-.11-.5149-.3-.7056l-23.27-25.0391-15.78-43.3464c-.25-.8009-8.212-27.13675-18.152-60.4713l1.077-.267c14.845 12.3765 63.985 53.16747 72.545 57.8015 5.8 3.1466 32.49 4.2145 64.87 4.7866 1.59 8.5816 11.57 53.1675 33.35 148.7092zm-102.76-240.6081c7.52-14.1691 14.98-38.7119 18.49-51.1839l41.4 35.8516zm-74.581 19.0892-8.998 2.3075-69.734 7.9713c-.596-9.3253-1.865-28.4145-3.365-49.8111l67.024-11.7468c4.902 16.8766 10.151 34.65 15.073 51.2791zm-36.472-199.2061-.443-2.632 46.432 1.144 35.834 19.128-13.76 24.657-11.11-3.413 3.19-9.554c.19-.611-.14-1.259-.73-1.45-.62-.21-1.27.134-1.46.725l-3.216 9.611-55.737-17.125c.154-12.319.98-20.615 1-20.805.019-.096.019-.191 0-.286zm70.333 43.003 13.55-24.276 7.29 3.89v26.774l-5.35-1.64c-.02 0-.04-.019-.05-.019zm15.11 30.951h-15.32v-28.606l14.17 4.348zm-55.181-40.849v8.83h-30.82c-.384-6.637-.5-12.892-.481-18.441zm73.141 40.849v-18.384l15.47 4.748 1.5 13.636zm-2.27-19.09c-.02.096-.06.172-.06.267v18.823h-13.3l-1.14-23.533zm-9.96-34.86-43.78-23.361-1.615-15.103 43.225-6.312 2.17 8.543zm-45.645-40.772-1.654-15.504 39.879-9.211 4.69 18.441zm-.519 16.954-45.817-1.145-3.345-20.233 45.739-10.565zm-48.182-1.202-54.007-1.335c-.115-4.5-.23-9.039-.346-13.578l51.085-4.767zm32.397 217.8954c.269-.0382.519-.0763.788-.1526l9.767-2.4982c8.844 29.7113 16.15 53.8731 17.824 59.4035l-42.011 9.6304c-.519.1144-.903.5912-.903 1.1251v53.6252h-39.914c-.231 0-.462.0762-.654.2097l-47.72 32.9345-2.403-4.501c-12.613-23.5706-22.418-48.5524-29.148-74.2208-6.652-29.0438-7.075-47.1223-1.269-55.2461 2.538-3.5661 6.595-5.5494 12.786-6.255zm-133.393 116.0798-21.303 6.5601-28.109-74.50693c6.229-1.41119 11.747-1.23956 16.496.53397 11.825 4.40516 17.785 18.57426 20.688 29.67306 3.345 12.777 7.441 25.3824 12.228 37.7398zm-17.65-71.30318c-3.384-3.05121-7.114-5.377746-11.19-6.88431-4.306-1.60187-8.94-2.30749-13.9-2.13586l24.494-18.42175 4.634-.5339c-3.461 6.6554-4.807 15.75188-4.038 27.97582zm-101.342 33.90668-21.342-22.8651c19.073-12.94859 34.05-23.30366 34.608-24.25716.884-1.48748 3.845-10.46944 5.787-16.49564 16.958.9344 39.664 1.1823 58.429 1.1823h5.518zm11.343-48.39997c-1.057 1.12516-15.323 10.94626-34.3 23.81857l-37.164-39.7993-2.48-13.7877c23.263 5.454 52.238 11.7663 68.215 13.5398 3.172.3432 6.921.6484 11.036.8963-2.23 6.9033-4.711 14.3025-5.307 15.33233zm-73.675-15.23703c.038.2098.134.4196.288.5721l8.056 8.6197-23.187 9.11552-16.439-40.33332c5.653 1.4112 16.17 4.0047 28.552 6.9225zm-16.996 19.14643-47.047 18.47897-2.346-3.69965 10.863-45.21525 21.61-11.0988zm27.013-8.14293 27.417 29.368c-20.38 13.8067-45.682 30.7982-65.986 44.3761l-16.688-13.5779.077-1.7354c.058-1.1823-.25-2.3456-.885-3.3373l-16.765-26.4884zm-55.392 63.0267 16.035 13.044 29.474 23.3418-49.181 36.9963zm68.369 33.6397-3.153 41.9734c-3.787 4.672-53.411 65.658-66.177 76.566-8.287 7.075-46.951.992-76.675-5.454-.134-.076-.307-.133-.48-.152-.058 0-.097.019-.154.019-2.115-.458-4.172-.915-6.172-1.373 4.23-1.354 6.633-2.136 6.864-2.193.615-.191 1.211-.496 1.73-.897zm-147.831 115.0124-1.961 24.18-63.14 7.323-4.172-13.864c26.628-8.867 47.931-15.79 60.063-19.699 2.653.591 5.749 1.297 9.21 2.06zm-67.024 33.086c.154.496.596.82 1.116.82h.134l63.639-7.38-3.249 40.333-63.774 8.2-26.898-48.438c8.575-2.898 16.804-5.644 24.61-8.238zm11.306 70.922 1.153 19.356-55.795 22.198-48.412-97.487c21.111-7.361 41.606-14.36 60.486-20.729zm-89.423-23.247-38.568 13.121-11.074-33.106c11.343-4.043 22.649-8.029 33.8-11.919zm-40.394 14.951 4.153 12.396-58.968 19.718-13.67-45.405c18.612-6.98 37.857-13.998 57.084-20.863zm-51.931 49.812-73.195 23.074c-3.537-10.717-11.151-30.531-21.014-55.379 22.168-9.478 48.047-19.681 75.444-29.978zm-159.867 46.13c14.939-6.56 26.936-11.881 36.549-16.19l10.69 32.61-35.607 16.362zm16.823 54.312-12.574 4.443-6.941-16.705 13.016-6.103zm-7.287-20.539-14.228 6.675c-.557.267-.807.915-.576 1.487l7.786 18.727c.193.439.616.706 1.077.706.135 0 .269-.019.385-.057l13.612-4.806 9.344 26.317-37.242 13.215-18.976-51.298-10.1517-27.461c14.0927-6.141 26.4747-11.557 37.3377-16.324zm2.884 1.202 35.569-16.343 6.844 20.881c-.884.763-1.768 1.507-2.711 2.27-11.285 8.944-17.38 20.748-19.014 38.846l-3.98 1.411zm37.684-17.316 27.186-12.491c-2.442 11.595-9.363 22.636-20.553 32.686zm-.731-2.212-10.69-32.591c18.688-8.372 27.898-12.72 32.454-15.084 3.365 9.058 5.653 15.733 6.191 18.345 1.115 5.511 1.231 10.946.443 16.286zm20.995-49.735c-5.325 2.689-16.919 8.01-32.396 14.932l-13.42-40.925c9.709-4.328 19.572-8.714 29.551-13.139.307-.133.634-.286.961-.419 5.768 14.646 11.228 28.643 15.304 39.551zm-21.014-49.62c-16.785 7.437-33.243 14.779-49.143 21.892l-6.864-18.822c-.211-.553-.807-.877-1.384-.725l-10.363 2.727-43.7978-102.044 39.8948-20.119c3.922 3.109 8.556 6.713 13.901 10.851 9.44 7.342 22.187 17.22 25.186 20.176 1.173 3.528 4.884 12.815 16.612 41.993 5.076 12.643 11.267 28.033 17.381 43.403-.462.248-.942.477-1.423.668zm-26.936 24.6 13.42 40.925c-10.709 4.786-23.149 10.278-36.607 16.209l-14.305-40.333c12.094-5.454 24.629-11.061 37.492-16.801zm-25.322 58.05c-11.862 5.206-24.475 10.736-37.3564 16.343l-14.6698-39.628c11.9204-5.397 24.5522-11.099 37.7222-17.03zm-28.974 45.653-19.0915 6.637-9.7478-24.505c4.2298-1.85 8.4788-3.681 12.7279-5.531 2.1725-.953 4.3067-1.868 6.4024-2.784zm-20.8411 8.506c.173.457.6152.724 1.0766.724.1346 0 .25-.019.3846-.057l20.1689-6.999 6.46 17.431-18.823 8.009c-.596.248-.8652.934-.6153 1.506.1923.439.6153.706 1.0575.706.1538 0 .3076-.038.4614-.095l18.7074-7.972 11.344 30.646-45.0864 16c-.0192-.095-.0192-.191-.0577-.286l-29.1088-74.698c7.7867-3.375 15.8041-6.846 23.8985-10.374zm146.9471 69.033-9.094-31.637 10.133-5.073 9.574 30.951zm25.437-13.787-12.747 6.922-9.46-30.607c-.038-.096-.096-.172-.134-.248l10.632-5.321zm-36.165-19.585c-2.326-.019-18.073.076-39.241 6.312-.615-23.266 4.345-35.585 15.093-44.109 25.859-20.52 31.435-41.974 30.435-58.488l12.728 2.231 21.476 73.744zm59.486-29.425c-.019 0-.038.019-.057.038-.019 0-.019 0-.039 0l-16.784 8.047-10.902-37.453 41.952-11.538 11.152 31.371zm19.727 16.572c.211-.477.077-1.011-.327-1.335l-16.727-13.769 34.434-12.987 18.035 79.504-27.282 6.636-27.456-13.883zm-38.261 87.436 18.015-41.172 26.687 13.501-18.919 37.854zm45.605 41.573-2.749-24.009c-.039-.42-.327-.782-.731-.935l-14.189-5.606 19.111-38.236 27.129-6.598 15.785 69.625zm190.226-46.894c-.096.02-.173.039-.269.077l-40.894 16.572c0-.134-.02-.267-.077-.401l-7.518-19.184c-.192-.496-.711-.801-1.25-.725l-32.396 4.882-8.229-56.2 10.055-7.323c.404-.286.558-.801.423-1.258l-7.075-23.17c-.192-.611-.827-.954-1.442-.763-.615.19-.961.82-.769 1.43l6.845 22.388-9.96 7.247c-.346.248-.519.667-.461 1.087l8.498 58.03c.039.305.212.572.461.763.25.191.558.248.866.21l32.627-4.92 7.191 18.326c.057.153.173.248.288.343l-94.671 38.37-37.991-167.493 78.347-8.887c.116-.019.212-.038.327-.076l15.381-6.427 17.381 27.194-8.556 8.486c-.403.401-.461 1.03-.115 1.488l14.17 19.604c.23.305.577.477.942.477.173 0 .346-.039.5-.115l41.51-20.176 21.668.725 3.287 5.263 10.037 15.733-18.919 13.788-8.864-11.404c-.384-.496-1.115-.592-1.634-.21-.5.381-.596 1.106-.211 1.621l8.825 11.346-10.21 7.438c-.288.21-.48.553-.48.934v17.812c0 .286.096.553.288.763l21.88 24.829zm12.555-1.887-22.552-25.612v-16.8l31.146-22.713 12.594-1.564 24.36 24.467 28.282 31.027zm132.412 52.919-14.535 16.686-31.089-35.203-24.59-21.263-8.633-18.918 22.726-3.432c.019 0 .038-.019.077-.038.173-.039.326-.096.461-.21.019-.019.038 0 .038-.019l.02-.019 9.613-8.067 16.265 22.674zm-10.113-20.729-17.13-27.633 16.957-19.642 5.499 6.541s.019 0 .019.019v.019l17.496 19.681zm24.552-22.579-16.63-18.708 11.862-8.715 15.958 17.125zm12.382-12.377-15.285-16.419 19.727-14.493 3.249 10.24zm38.299 8.467-7.363 8.773-29.071-15.638 7.941-21.282 29.128-7.533 5.556 6.866zm69.177 73.325-40.164-41.21-5.576-16.839c-.115-.363-.423-.649-.788-.744l-16.439-4.539-3.903-9.554 6.307-29.292c.077-.343-.02-.686-.231-.953l-6.364-7.857c-.288-.362-.75-.515-1.192-.4l-29.378 7.589-3.288-10.336 33.762-24.791 17.342-16.572 100.477 107.746zm52.219-49.353-28.167-30.188 31.589-26.527 23.399 31.37zm28.455-27.061-22.995-30.798 41.183-15.924 11.344 12.739-16.766 19.299s0 0-.019 0zm64.12 52.348-8.844-21.416c-.096-.248-.289-.439-.519-.572l-53.027-28.853 12.074-13.883 61.833 49.639zm12.92-16.897-61.717-49.544 15.92-18.307 61.255 47.656zm16.842-22.045-60.197-46.836 36.126-8.639 44.028 29.368zm20.361 15.829-18.534-14.417 20.034-26.241 20.265 13.521c-7.21 8.963-14.478 18.04-21.765 27.137zm23.226-28.949-66.793-44.548c-.269-.171-.596-.228-.923-.171l-38.26 9.134-10.767-12.109 52.142-11.385c.308-.076.577-.267.75-.534s.211-.591.134-.896l-12.881-47.485c-.173-.61-.808-.973-1.423-.82l-51.411 13.692-5.922-18.536 36.857-11.556h.019.019l.077-.019 15.612-6.446c.5-.21.788-.725.692-1.24l-4.46-28.3c0-.019-.019-.038-.019-.038 0-.019 0-.038 0-.057l-2.231-8.848c-.154-.611-.788-.992-1.403-.84-.616.153-1 .782-.846 1.393l1.942 7.723-57.18 14.093-3.537-11.042 15.823-18.174 66.562-17.887 6.71 17.983c.057.171.154.324.288.438l74.025 69.225 4.92 54.35c.04.324.19.61.44.801l14.23 10.984c-10.83 13.349-21.92 27.118-33.186 41.115zm77.286-13.654-16.18 28.586-1.85 3.337-42.2-21.015c10.86-13.483 22.3-27.613 33.82-41.744l31.32 2.402zm-24.64-33.029c15.7-19.261 31.47-38.465 46.04-55.914l35.03 10.031 68.85 19.718c-4.23 15.199-7.78 27.957-8.4 30.188l-7.46 6.293zm132.95 49.277-13.75-21.588 24.13-22.178 56.99-48.019c5.13 2.212 8.49 4.463 10.76 7.037 6.54 7.457 40.38 44.281 53.51 58.545l-76.46 76.357zm78.52 71.417-21.65-19.699 15.24-15.218 22.11 18.097zm17.28-18.498-22.05-18.059 14.69-14.665 26.61 12.148zm-5.63-34.44 43.01-42.946c1.48 1.602 2.59 2.822 3.17 3.451 1.25 2.117 5.36 9.097 11.09 18.727l-18.3 38.56zm62.83-34.098c-2.48-4.195-4.83-8.143-6.94-11.747-.21-.343-.44-.686-.73-.973-.08-.095-1.56-1.697-3.96-4.309l.32-.325 15.62 6.294zm6.46-10.202 16.07 6.465c-.02.038-.05.076-.07.114l-9.69 25.077c-3.95-6.598-7.75-12.987-11.27-18.936zm10.36 80.647-38.57-17.601 17.64-37.13c7.07 11.9 16.28 27.289 25.49 42.507-1.48 3.967-3.02 8.067-4.56 12.224zm9.73-26.049c-4.11-6.828-8.25-13.712-12.26-20.425l10.36-26.774c.02-.038 0-.057.02-.095l17.34 6.979c-3.92 9.821-9.27 23.838-15.46 40.315zm48.34 37.434-33.59-13.158c-2.31-3.757-4.69-7.666-7.12-11.633 3.37-9.039 6.52-17.43 9.37-24.944l43.99 19.109zm13.53-32.781-44.06-19.128c3.24-8.562 6.03-15.866 8.26-21.53l45.09 18.155zm18.48-44.682-8.29 20.043-22.36-9.001c.12-.095.25-.191.31-.343l9.71-20.272zm-22.23-11.594-10.19 21.32c-.09.191-.11.381-.09.572l-20.9-8.41c2.17-5.511 3.69-9.115 4.34-10.298 1.48-2.135 5.14-9.516 9.92-19.699l20.29 9.478zm13.46-26.775c-.4.038-.77.248-.94.63l-8.15 17.029-20.31-9.497c2.41-5.13 5.06-10.87 7.83-16.972zm-49.74 23.304c-.71.934-2.67 5.473-5.55 12.662l-52.38-21.091 65.78-65.678c10.96-.724 20.26.039 26.18.82-14.67 32.858-31.3 69.397-34.03 73.287zm57.59-127.045c-.52 1.354-.97 2.498-1.33 3.356-2.67 6.293-9.4 21.645-17.34 39.494-6.23-1.029-18.02-2.402-32.44-1.354 26.28-9.992 40.74-25.153 51.11-41.496zm-65.45 54.979c4.19-.839 8.25-1.392 12.15-1.754l-64.56 64.456-4.04-1.62c-14.67-15.962-44.3-48.229-50.22-54.98-1.75-2.002-3.82-3.795-6.34-5.473 38.81 2.193 92.24 3.49 113.01-.629zm-36.26-123.136-53.01 71.609c-.08.095-.13.228-.17.343l-12.42 40.886c-20.11-.972-37.94-2.269-47.78-3.452-2.67-.324-7.36-.991-13.71-2.25 2.96-10.66 5.12-18.441 5.29-19.127.25-1.011 1.48-14.188 1.15-29.578l59.87-55.227c5.66-1.678 9.1-2.67 9.27-2.708 1.14-.324 2.13-.992 2.88-1.888l20.52-25.001zm-56.47-10.05c-8.13 2.365-41.24 12.053-72.52 22.503-4.65-13.139-16.25-46.264-17.63-52.576-.39-1.736-3.37-14.761-7.87-34.46-.67-2.918-1.38-6.026-2.11-9.268l161.62-39.723 9.17 27.461zm152.29-244.574-74 144.761-40.13-120.0652zm-104.76-144.0175c11.32 10.5267 76.92 89.8965 89.02 104.5424l-9.41 33.1629-92.15 19.9473-43.43-187.688c18.65 8.429 47.85 22.4836 55.97 30.0354zm-47.41 58.3546c-11.75 3.18465-28.4 7.62801-45.3 11.956925v-38.369125c0-.1144-.02-.2479-.06-.3623l-16.82-51.1651 48.16 17.3729zm-197.67-310.3091 74.81 5.664 11.59 32.553-43.81 2.975c-.08 0-.18.019-.25.038l-42.34 12.472zm0 56.123 42.87-12.624 44.34-3.013 3.86 10.832-91.07 44.166zm0 41.917 91.84-44.548 4.14 11.594c.02.058.05.115.07.172 1.79 4.806 11.39 23.266 23.52 46.016l-96.54 47.733c-.57.286-.81.972-.52 1.544.21.401.62.63 1.04.63.17 0 .35-.038.52-.115l96.57-47.751c19.02 35.585 43.76 80.743 54.72 100.709l5.19 22.4074-65.12-23.4944c-1.09-.4-2.3-.458-3.42-.172l-74.5 19.0705-45.87-39.7235-4.16-37.663 25.25-12.453c.52-.248.77-.839.57-1.392l-13.32-40.085v-2.479zm-2.31-98.212v97.029c-.17.324-.21.706-.04 1.049.02.019.04.038.04.057v2.727c0 .115.02.248.06.363l13.05 39.303-23.57 11.633-14.4-130.821c.08.038.14.076.21.095l14.98 3.318v13.254l-11.88-1.258c-.64-.058-1.21.381-1.27 1.029-.08.63.38 1.202 1.04 1.259l13.17 1.411h.11c.29 0 .56-.095.77-.286.25-.21.39-.534.39-.858v-15.447c0-.534-.39-1.011-.91-1.125l-15.88-3.509c-.34-.076-.67.019-.92.191l-2.37-21.473zm-25.51 57.993-17.57-3.509v-2.289c0-.095-.02-.19-.04-.286l-7.46-29.329 20.65-4.768zm-6.6-59.9 1.93 17.45-20.96 4.843-4.69-18.44zm-26.01 4.215 4.73 18.574-39.549 9.135-2.326-21.683zm-39.452 6.408 2.345 21.835-45.874 10.603-4.095-24.715zm-49.912 8.085 4.115 24.849-50.777 4.729c-.174-7.418-.327-14.798-.481-21.931zm-48.816 101.396h-37.472l-2.576-18.117 39.145-1.315c.269 7.227.576 13.806.903 19.432zm-2.73-82.707-3.653-10.527h3.422c.077 3.452.154 6.98.231 10.527zm-.807-41.497c.134 8.525.326 18.308.519 28.682h-4.173l-9.747-28.148zm-54.892 2.174 39.087-1.544 9.71 28.052h-50.22zm-51.546 52.481c8.556-5.873 30.166-21.606 32.993-23.666h15.842.058.019l52.238-.019 6.268 18.098c.423 18.46.942 37.358 1.557 53.396l-40.413 1.354c-.327.019-.635.153-.846.42-.212.248-.308.572-.27.896l2.904 20.367c.076.572.576.991 1.153.991h38.626c.423 6.961.884 12.224 1.384 15.047 3.077 17.525 9.729 118.0629 11.363 143.0638l-64.62 7.3801c-2.403.0382-20.207.2861-41.125.2289v-49.7158c0-.1335-.019-.267-.077-.4005l-62.717-169.4185c6.422-2.06 37.223-12.224 45.663-18.022zm-182.516 81.334c5.402-5.358 17.323-27.442 19.111-30.779l91.614-33.468 23.783 1.354 62.793 169.6288v49.5061c-22.302-.0954-47.547-.5912-61.332-2.0978-24.956-2.7461-85.211-17.6398-99.093-21.1106l-30.07-79.1405c-.288-.763-.75-1.469-1.327-2.041l-33.723-33.468c9.248-5.397 24.283-14.455 28.244-18.384zm-314.179-32.59 3.249-73.954 51.566 13.463c.096.019.192.038.288.038.211 0 .423-.057.615-.171.269-.172.462-.439.519-.744l5.345-25.916 45.663 11.69-2.596 13.787c-7.536 11.347-13.343 20.176-15.554 23.666l-66.542 43.862zm82.443-19.948c-4.095 12.32-10.805 32.419-17.938 52.634l-39.664-14.665zm-60.006 39.533 41.279 15.256c-10.055 28.338-20.764 56.333-26.147 62.645-1.385 1.64-3.154 3.318-5.153 5.015l-41.106-25.744-3.384-17.526-2.884-15.027zm8.114 84.48c-15.535 12.243-43.413 24.8295-52.008 27.4421-1.115.3433-4.172 1.8879-8.767 4.3671-8.844.0762-20.707 1.087-31.243 2.0977 10.921-8.0476 24.091-29.1389 25.302-31.1029l26.629-27.919zm-41.587-27.289-26.84 11.003-4.153-6.77 28.052-19.566zm-36.626-68.252-14.016-2.041-10.882-37.549 10.151-3.356zm-31.339-91.022 7.46 13.006c-1.269 1.545-1.654 3.604-1 5.473l9.402 27.423-10.056 3.318-2.653-9.192c-.135-.438-.519-.781-.981-.82l-11.535-1.315-13.267-18.804zm-24.437 20.577 13.439 19.051c.193.267.481.439.827.477l11.286 1.277 14.17 48.934c.134.439.5.763.942.82l15.939 2.327 11.362 33.087c-4.383 2.955-12.651 8.352-23.417 14.607l-22.034-3.585c.039-.172.058-.343.019-.534l-17.284-79.351c-.058-.305-.269-.572-.539-.743-.269-.172-.596-.21-.903-.134l-27.302 7.418-7.267-17.754zm11.151 75.079 9.056 41.535-41.318-6.713-6.094-26.26zm-38.875 6.331-7.46-32.171 38.433-10.45 7.422 34.04zm6.748 30.837 62.37 10.145c-17.361 9.878-40.413 21.378-64.12 28.681zm-32.223-118.464 12.055 3.013 1.672 32.896-32.435 3.49-6.8828-29.94zm-27.8787 9.821 6.8638 29.845-50.3347 5.397 1.7111-38.961zm-46.9894-41.401 12.0165 2.498-8.7672 32.705-9.8824-.877zm-30.6276 47.446 22.8217-10.927 10.7091.954-1.6919 38.979-34.3576-8.887zm-13.05478 52.138 2.99932-31.58 21.68736 5.607-3.6722 30.092zm39.06808 49.601 3.5184-39.208 30.8392-1.563 6.287 40.161zm36.4917-42.145c-.0961-.591-.6152-.991-1.2113-.972l-32.7425 1.659-18.3036-3.585 3.653-29.959 18.7458 4.843c.0577.02.1346.02.1923.02.0192 0 .0384.019.0384.019h.0577.1153l87.5186-9.402c.019 0 .039-.019.058-.019.192-.038.346-.095.48-.21.02-.019.058-.019.077-.038l4.884-4.119 6.864 16.801-11.152 3.032c-.596.171-.961.763-.826 1.373l14.169 61.101-66.1576.972zm37.5107 88.944c-7.537.495-15.4772.343-23.6292-.248l-7.0369-44.891 66.0431-.992-1.788 39.761c-11.248 3.318-22.63 5.645-33.589 6.37zm32.473 5.911c51.873-14.054 101.189-48.857 104.381-51.127l8.248-5.435 2.576 13.368-29.782 20.787c-.5.343-.634 1.03-.326 1.545l5.248 8.524c.289.477.904.686 1.442.458l23.61-9.688-23.648 24.791c-.058.057-.116.115-.154.191-.192.305-18.361 29.711-29.147 32.953-.154.019-.308.0381-.442.0381-.558.0572-1.116.1144-1.673.1526v-21.2247c0-.534-.365-.992-.885-1.126zm34.723 10.66 23.284 5.569v20.5384c-4.461.4196-8.21.7628-10.46.8773-3.134.1334-9.555-.8963-16.88-2.3838zm-146.1588 120.80961 2.6917-12.37649c.0576-.22886.0384-.45768-.0577-.66745l-14.5544-35.66107.9613-23.8377 83.6729-32.3048 32.589 2.2694c2.923.7819 43.644 11.4992 53.776 11.0606 2.942-.1335 8.325-.6483 14.555-1.2586 9.709-.9344 22.591-2.193 32.819-2.5744-37.626 20.8436-143.794 84.11824-196.9165 115.8891zm14.439 31.04619c86.9228-51.9852 200.3778-119.1692 208.5868-122.1823 10.248-3.1275 50.374-20.9585 64.486-37.5875 9.575-11.289 29.301-68.118 47.316-122.22 2.288-6.846 4.268-12.815 4.807-14.207 1.23-2.041 8.555-13.14 18.707-28.415l87.788 7.8 33.012 71.398c.288.63.692 1.183 1.172 1.679l71.311 70.731 28.878 76.0132-21.764 11.175c-1.5.7628-2.576 2.155-2.98 3.7759l-12.036 50.11628c-.365 1.50652-.096 3.08932.731 4.38612l20.687 32.6862-4.287 85.8153-66.351 49.907c-15.785 5.053-221.392 70.998-333.309 118.807-5.325-13.369-11.151-27.881-17.246-43.042-7.748-19.261-15.073-37.492-16.342-41.191-.173-3.089-2.307-5.016-29.07-25.783-10.94-8.505-24.572-19.07-26.898-21.702-3.019-3.432-10.3633-22.293-15.689-38.579-.0769-.209-.1538-.419-.2499-.629zm-40.6831 155.2882 22.5718-11.461c.2307-.115.423-.325.5384-.553l14.1698-31.809c.0385-.096.0769-.191.0769-.286l2.7302-18.079 26.5901-9.859 4.6528 9.974c2.1726 6.598 11.9011 35.47 17.8806 42.259 1.7113 1.945 5.9983 5.53 12.5933 10.775l-39.9141 20.118c-.5383.267-.7883.916-.5383 1.469l33.0504 77.024-48.5469 18.67zm46.7202 110.378 48.5657-18.689 10.171 23.723-48.6813 18.727zm10.9591 25.859 49.6806-19.109 10.248-2.708 6.556 17.984c-20.245 9.077-39.51 17.754-57.1983 25.763zm-34.2038 54.388c13.3431-6.103 28.705-13.082 45.5473-20.71l14.6505 39.608c-14.9966 6.541-30.3008 13.197-45.2012 19.642zm-31.08914 60.986c12.92014-5.569 28.32054-12.224 44.81674-19.375l29.0704 74.621c.0384.076.0961.114.1538.172l-49.3735 17.525zm25.39804 75.117 35.7035-12.662c.0192.076.0192.152.0384.228l7.383 18.842-35.9342 14.817z" fill="#6775ff"/></g></svg>