<svg width="129" height="18" xmlns="http://www.w3.org/2000/svg"><path d="M18.304.009h17.212v17.982H18.304zm18.304 0H53.82v17.982H36.608zm18.304 0h17.212v17.982H54.912zm18.304 0h17.212v17.982H73.216zM0 .009h17.212v17.982H0z"/><path d="M8.993 15.314c-3.57 0-5.473-2.64-5.473-6.201 0-3.87 2.262-6.201 5.492-6.201 2.948 0 4.118 1.271 4.943 3.533l-3.004 1.207c-.428-1.12-.843-1.842-1.94-1.842-1.382 0-1.994 1.382-1.994 3.303s.585 3.303 2.027 3.303c1.046 0 1.492-.566 2.147-1.704l2.815 1.501c-.825 1.576-2.166 3.101-5.013 3.101Zm18.889-5.017h-1.99l.226-.802c.428-1.525.617-2.193.774-2.999.152.806.34 1.456.77 3l.22.8Zm5.068 4.76L28.587 3.044h-3.354l-4.367 12.011h3.566l.654-2.128h3.603l.654 2.128h3.607ZM47.025 7.03c0 .862-.433 1.341-1.516 1.341h-1.958v-2.63h2.009c1.05 0 1.465.53 1.465 1.29Zm3.547 8.017-2.405-4.607c1.323-.6 2.166-1.71 2.166-3.516 0-2.847-1.87-3.91-4.69-3.91h-5.368v12.033h3.276v-4.059h1.34l1.959 4.059h3.722Zm11.56-9.187v1.677h3.754v2.811h-3.754v4.699h-3.313V3.045h9.509v2.829zm20.69 4.423h-1.99l.221-.788c.428-1.525.617-2.193.774-3.004.152.811.34 1.46.77 3.004l.225.788Zm5.068 4.74L83.522 3.046H80.16l-4.358 11.979h3.57l.65-2.124h3.607l.65 2.124h3.612Zm12.232-.114a21.726 21.726 0 0 1-1.35 1.985l-.157.212h2.83l-.14-.212c-.47-.75-.86-1.336-1.183-1.985Z" fill="#FFF"/><path d="m98.058 12.448-4.147-5.91h4.23l.732 1.16c.464.703.884 1.434 1.258 2.189.3-.631.81-1.438 1.276-2.189l.737-1.16h4.147l-4.147 5.841 3.47 4.727h2.257V.88H92.446v16.226h2.129l3.483-4.658Z" fill="#FFF"/><path d="M91.516.01v17.967h17.212V.009H91.516Zm7.1 17.096.156-.212c.486-.636.937-1.299 1.35-1.985.322.65.714 1.234 1.184 1.985l.138.212h-2.829Zm9.214 0h-2.258l-3.47-4.727 4.147-5.842h-4.146l-.737 1.161c-.461.751-.977 1.558-1.276 2.189a20.354 20.354 0 0 0-1.258-2.189l-.733-1.16H93.87l4.146 5.91-3.515 4.658h-2.128V.898h15.424l.033 16.208Z"/><path fill="#EB1C2D" d="M118.97 18h1.285v-2.138l4.335.489-.212-1.793 4.534-3.381-.908-1.239.908-2.885-2.921.277-.765-1.414-2.824 2.662 1.018-5.901-1.88 1.115-1.921-3.778L119.61 0l-1.921 3.778-1.88-1.115 1.018 5.902-2.824-2.663-.765 1.419-2.925-.277.912 2.88-.912 1.244 4.538 3.377-.212 1.796 4.331-.493V18"/></svg>